<svg xmlns="http://www.w3.org/2000/svg" viewBox="0 0 449.69 449.69"><defs><style>.cls-1{fill:#231f20;}.cls-2{fill:#fff;}</style></defs><title>mailAsset 1</title><g id="Layer_2" data-name="Layer 2"><g id="Layer_1-2" data-name="Layer 1"><circle class="cls-1" cx="224.85" cy="224.85" r="224.85" transform="translate(-93.13 224.85) rotate(-45)"/><path class="cls-2" d="M88.15,159.18,92.7,163q58.53,49.88,117.06,99.74c9.06,7.72,21.12,7.72,30.17,0L360,160.52c.48-.41,1-.81,1.89-1.56.63,2.52,1.22,4.69,1.7,6.89a12.49,12.49,0,0,1,.11,2.53q0,64.05,0,128.09c0,7.49-3.1,13.26-9.44,17.24a18.78,18.78,0,0,1-9.35,2.74c-.6,0-1.2,0-1.8,0q-118.38,0-236.75,0c-6.29,0-11.61-2.09-15.73-6.91A19.06,19.06,0,0,1,86,296.77q0-30.87,0-61.73,0-33.4,0-66.81A19.12,19.12,0,0,1,88.15,159.18Z"/><path class="cls-2" d="M97.81,134.45c2.28-.4,4.56-.82,6.84-1.19a10.09,10.09,0,0,1,1.65,0H343.47a19.9,19.9,0,0,1,8.58,1.65c-.52.49-.89.86-1.29,1.2q-59.42,50.67-118.84,101.31a10.73,10.73,0,0,1-14.2,0L99,136.14c-.41-.35-.79-.72-1.19-1.08Z"/></g></g></svg>